:SAMPLES-PER-SECOND 30
:FULLY-SPECIFIED
:DEGREES
184
root  13.9854 38.14 -2.05239 -118.515 -83.6065 112.953
RightUpLeg  -1.9389 -0.50667 -12.2714
RightLeg  59.6267 3.32679 5.63409
RightFoot  2.28641 -1.41138 11.9079
RightToes  -2.9104e-010 0 -3.6325e-017
Spine  5.95189 2.56516 3.50024
Spine1  2.93615 4.92543 -13.9284
HEad  -18.6944 -32.798 -10.1688
LeftShoulder1  0.417199 2.30766 -28.7568
LeftArm  -4.64619 17.7018 -38.6166
LeftForeArm  28.558 -14.847 -5.53566
LeftHand  -0.0559971 7.19932 -1.00088
RightShoulder  -0.0610383 -3.9074 6.96494
RightArm  -32.5813 61.5238 43.9791
RightForeArm  174.475 62.379 161.565
RightHand  -1.19192 11.8013 -8.43107
LeftUpLeg  -14.1832 6.80264 -10.668
LeftLeg  22.177 4.78079 2.24925
LeftFoot  -3.19538 -0.698349 10.0592
LeftToes  -3.37426e-010 -1.91496e-010 5.23909e-011
185
root  12.9299 38.347 -1.98277 -123.18 -83.8114 117.042
RightUpLeg  -6.26479 1.21716 -11.6298
RightLeg  62.0876 3.2543 6.12178
RightFoot  1.53691 -1.29501 11.527
RightToes  -2.9104e-010 0 -3.6325e-017
Spine  7.30854 1.94495 3.15501
Spine1  2.00588 4.19081 -14.2764
HEad  -21.4595 -32.5562 -10.068
LeftShoulder1  0.559225 1.86535 -28.0326
LeftArm  -5.03248 17.8697 -38.8676
LeftForeArm  31.1466 -13.9011 -5.81718
LeftHand  -0.0681551 7.03471 -1.93207
RightShoulder  -0.0817687 -4.07256 6.28179
RightArm  -35.8906 62.2104 41.2414
RightForeArm  176.56 61.9537 162.078
RightHand  -1.18528 12.3261 -8.15818
LeftUpLeg  -11.3733 6.68329 -9.97443
LeftLeg  21.6276 5.42936 2.05433
LeftFoot  -4.67386 -0.565537 10.1632
LeftToes  -3.37426e-010 -1.91496e-010 5.23909e-011
186
root  11.8573 38.5687 -1.92094 -126.408 -84.2981 119.932
RightUpLeg  -10.2389 2.55464 -10.712
RightLeg  61.5727 2.60154 4.71999
RightFoot  0.779865 -1.01334 9.56186
RightToes  -2.9104e-010 0 -3.6325e-017
Spine  8.23631 1.26992 2.83832
Spine1  0.803594 3.34144 -14.078
HEad  -22.6082 -32.5047 -10.0342
LeftShoulder1  0.763945 1.22365 -27.3386
LeftArm  -4.91129 18.1421 -39.1088
LeftForeArm  32.9195 -13.3685 -6.07587
LeftHand  -0.067901 7.45276 -1.42117
RightShoulder  -0.0870692 -4.14095 5.48629
RightArm  -39.6761 62.361 37.7984
RightForeArm  178.308 61.7312 162.4
RightHand  -1.21082 12.9089 -8.07449
LeftUpLeg  -8.51035 6.06251 -9.12612
LeftLeg  20.5423 6.13763 1.76507
LeftFoot  -5.97142 -0.438375 10.0857
LeftToes  -3.37426e-010 -1.91496e-010 5.23909e-011
187
root  10.8232 38.7528 -1.86294 -127.399 -84.678 120.832
RightUpLeg  -13.6039 3.4812 -10.0943
RightLeg  58.0651 1.90422 2.85967
RightFoot  -0.728747 -0.770661 8.24098
RightToes  -2.9104e-010 0 -3.6325e-017
Spine  9.24071 0.51844 1.91569
Spine1  -0.994316 2.22995 -13.1093
HEad  -23.2094 -33.3415 -10.8154
LeftShoulder1  0.874407 0.88407 -27.2404
LeftArm  -4.76976 18.4867 -38.9149
LeftForeArm  33.1535 -13.2858 -6.13578
LeftHand  -0.065419 7.57283 -1.14978
RightShoulder  -0.0586386 -3.978 4.15186
RightArm  -42.9429 61.8639 35.0767
RightForeArm  179.312 61.4644 162.68
RightHand  -1.31327 13.28 -8.56043
LeftUpLeg  -5.81221 5.41384 -8.56847
LeftLeg  19.0612 6.69786 1.33473
LeftFoot  -7.07653 -0.326368 9.88655
LeftToes  -3.37426e-010 -1.91496e-010 5.23909e-011
188
root  9.77052 38.8949 -1.785 -131.554 -84.9328 124.755
RightUpLeg  -15.7347 4.43456 -9.54155
RightLeg  51.6025 1.76322 2.01778
RightFoot  -2.49431 -0.647933 8.14979
RightToes  -2.9104e-010 0 -3.6325e-017
Spine  10.0991 -0.129442 1.58268
Spine1  -2.42111 1.42722 -12.6627
HEad  -28.0028 -33.8222 -9.72445
LeftShoulder1  1.03918 0.348182 -26.7752
LeftArm  -3.54232 19.1281 -38.7628
LeftForeArm  32.0658 -14.1688 -6.04829
LeftHand  -0.0471771 7.05185 -0.568223
RightShoulder  -0.0559945 -4.00115 2.92003
RightArm  -46.6814 61.53 32.0517
RightForeArm  178.782 61.4979 162.608
RightHand  -1.42022 14.3083 -8.76308
LeftUpLeg  -2.97668 5.24778 -8.02646
LeftLeg  17.5652 6.99231 0.916632
LeftFoot  -8.19211 -0.218734 9.73563
LeftToes  -3.37426e-010 -1.91496e-010 5.23909e-011
189
root  8.72595 38.97 -1.71525 -134.786 -85.2404 127.846
RightUpLeg  -16.9385 4.65222 -8.99915
RightLeg  42.8579 2.20909 1.8964
RightFoot  -3.39728 -0.605212 8.36576
RightToes  -2.9104e-010 0 -3.6325e-017
Spine  10.5563 -0.84039 1.50242
Spine1  -3.46314 0.687716 -12.4939
HEad  -37.1396 -34.1085 -5.70336
LeftShoulder1  1.13847 -0.0576537 -25.816
LeftArm  -3.29708 19.2883 -39.0944
LeftForeArm  31.8001 -14.6435 -5.88956
LeftHand  -0.0521854 7.17618 -0.771314
RightShoulder  -0.0543157 -4.00853 2.39716
RightArm  -50.6286 61.4678 28.2993
RightForeArm  179.145 61.465 162.664
RightHand  -1.52402 14.9459 -9.09908
LeftUpLeg  -0.468055 5.41952 -7.56978
LeftLeg  16.4603 6.91637 0.671467
LeftFoot  -9.46767 -0.099867 9.54708
LeftToes  -3.37426e-010 -1.91496e-010 5.23909e-011
190
root  7.66393 39.0094 -1.65732 -136.419 -85.3364 129.602
RightUpLeg  -17.4692 4.26455 -8.63075
RightLeg  32.4627 2.99996 1.84756
RightFoot  -3.3323 -0.625797 8.59463
RightToes  -2.9104e-010 0 -3.6325e-017
Spine  10.6379 -1.40739 1.48711
Spine1  -4.4653 0.165907 -12.5794
HEad  -50.5183 -33.7399 2.57014
LeftShoulder1  1.32247 -0.770569 -24.7102
LeftArm  -2.96917 19.5458 -39.407
LeftForeArm  31.0869 -15.375 -5.64588
LeftHand  -0.0374291 6.92447 0.0165929
RightShoulder  -0.0866149 -4.30281 2.58217
RightArm  -54.1965 61.6244 24.4731
RightForeArm  179.059 61.7223 162.477
RightHand  -1.53666 15.6133 -8.89145
LeftUpLeg  1.77439 5.55056 -7.39456
LeftLeg  15.3911 6.90574 0.492142
LeftFoot  -10.7867 0.0208253 9.19778
LeftToes  -3.37426e-010 -1.91496e-010 5.23909e-011
191
root  6.59422 39.0316 -1.61299 -137.769 -85.3405 131.298
RightUpLeg  -17.2768 3.41498 -8.13484
RightLeg  20.7992 3.94963 1.37541
RightFoot  -2.95641 -0.664132 8.77009
RightToes  -2.9104e-010 0 -3.6325e-017
Spine  11.0493 -1.92237 1.39826
Spine1  -6.23631 -0.427461 -12.2693
HEad  -63.6346 -32.0613 11.8314
LeftShoulder1  1.34504 -0.928591 -24.1051
LeftArm  -3.35468 19.4889 -39.3515
LeftForeArm  31.5035 -15.8293 -5.35518
LeftHand  -0.0345328 6.16796 -0.107478
RightShoulder  -0.09458 -4.42009 2.00953
RightArm  -56.9887 61.2627 21.9006
RightForeArm  179.146 61.6956 162.503
RightHand  -1.59485 15.4149 -9.29199
LeftUpLeg  3.81315 5.7196 -7.26387
LeftLeg  14.2229 6.80591 0.246896
LeftFoot  -11.8626 0.112778 9.07969
LeftToes  -3.37426e-010 -1.91496e-010 5.23909e-011
